<?xml version="1.0" standalone="no"?>
<!DOCTYPE svg PUBLIC "-//W3C//DTD SVG 20010904//EN"
 "http://www.w3.org/TR/2001/REC-SVG-20010904/DTD/svg10.dtd">
<svg version="1.0" xmlns="http://www.w3.org/2000/svg"
 width="464.000000pt" height="464.000000pt" viewBox="0 0 464.000000 464.000000"
 preserveAspectRatio="xMidYMid meet">
<metadata>
Created by potrace 1.10, written by Peter Selinger 2001-2011
</metadata>
<g transform="translate(0.000000,464.000000) scale(0.050000,-0.050000)"
fill="#000000" stroke="none">
<path d="M6327 8875 c-111 -216 -95 -458 75 -1096 131 -492 214 -903 208
-1032 l-4 -105 62 32 c107 56 552 31 552 -31 0 -74 -184 -75 -235 -1 -35 49
-107 49 -150 -1 -51 -60 -132 -73 -202 -33 -41 23 -66 27 -80 13 -14 -14 -36
-7 -71 24 -28 25 -17 7 24 -40 41 -47 74 -96 74 -109 0 -13 13 -6 29 15 28 36
30 34 31 -41 1 -106 61 -233 126 -268 71 -38 73 -48 43 -246 -34 -235 -21
-314 66 -405 l71 -73 57 55 c86 82 101 164 74 402 l-23 206 82 75 c90 84 118
156 89 239 -25 73 3 157 82 244 35 38 45 56 23 40 -22 -16 -47 -40 -56 -53 -8
-13 -29 -19 -47 -12 -63 24 -13 278 244 1256 119 453 133 716 49 920 -50 119
-147 199 -107 87 55 -153 4 -434 -222 -1225 -176 -613 -211 -764 -211 -906 0
-81 -3 -86 -57 -86 -56 0 -57 2 -69 145 -13 147 -82 411 -280 1076 -135 454
-181 691 -171 889 9 178 -4 185 -76 45z m593 -2398 c0 -14 25 -18 70 -11 49 8
70 4 70 -13 0 -42 -78 -112 -110 -100 -17 6 -30 1 -30 -12 0 -13 9 -18 20 -11
11 7 21 1 22 -14 1 -20 3 -20 11 -1 12 29 47 34 47 7 0 -34 -67 -43 -97 -14
-24 25 -25 35 -3 61 14 18 20 38 13 45 -8 7 -27 -4 -43 -25 -29 -38 -30 -38
-17 -1 10 27 7 34 -9 24 -13 -8 -39 -5 -59 5 -30 17 -28 22 20 34 30 7 50 21
44 31 -6 10 3 18 20 18 17 0 31 -10 31 -23z m140 -693 c0 -20 -18 -56 -40 -79
-58 -63 -49 -80 13 -23 l53 48 -35 -55 c-20 -30 -44 -55 -54 -55 -11 0 -14 -9
-7 -20 21 -34 -14 -22 -44 15 -16 19 -24 24 -17 11 16 -31 -22 -53 -41 -23 -8
13 4 38 28 58 23 19 37 39 31 45 -6 6 8 23 31 37 23 15 42 38 42 52 0 14 9 25
20 25 11 0 20 -16 20 -36z"/>
<path d="M7779 7309 c-10 -29 -29 -71 -40 -95 -20 -41 -19 -41 20 3 22 26 41
60 41 76 0 16 9 24 20 17 57 -35 18 -126 -115 -262 -311 -318 -371 -400 -358
-486 9 -56 4 -84 -17 -102 -21 -17 -30 -63 -30 -148 0 -84 -13 -149 -40 -201
-33 -66 -39 -113 -35 -300 4 -249 -57 -420 -182 -509 -213 -152 -557 282 -588
742 l-8 113 55 -43 c74 -58 98 -144 101 -359 3 -144 32 -93 50 89 17 171 16
187 -27 268 -26 48 -46 121 -46 166 0 87 -11 100 -87 106 -62 5 -83 68 -43
128 31 48 -125 189 -460 417 -158 108 -205 173 -173 238 14 30 21 33 22 12 1
-36 201 -238 201 -203 0 13 -9 24 -20 24 -11 0 -60 54 -108 120 l-88 119 -43
-72 c-179 -303 -69 -446 554 -718 96 -41 97 -47 62 -247 -46 -268 -244 -626
-465 -841 l-91 -89 -216 24 c-118 12 -309 46 -425 75 -248 62 -562 84 -720 50
-423 -89 -737 -75 -1520 70 -1135 209 -1592 118 -1822 -365 -137 -288 -12
-909 327 -1634 225 -480 154 -704 -293 -925 -84 -42 -152 -82 -152 -89 0 -8
54 -269 121 -581 66 -312 154 -727 195 -922 l74 -355 257 0 c220 0 256 4 246
30 -10 25 10 30 108 30 142 0 140 -8 37 144 -210 309 -287 558 -287 926 1 452
102 651 566 1110 150 149 295 302 321 342 l48 72 672 16 c370 9 748 17 842 18
l169 2 65 -107 c142 -237 178 -724 105 -1413 -46 -431 -50 -695 -16 -933 l25
-177 206 0 c225 0 226 1 169 116 -78 155 -89 267 -90 953 -1 686 6 769 91
1071 72 253 87 252 148 -10 51 -215 51 -834 1 -1360 l-36 -380 78 -220 79
-220 183 -3 c213 -3 206 -19 100 229 l-82 194 12 320 c38 1030 264 1617 979
2539 262 337 485 748 635 1171 45 127 117 303 161 393 113 234 158 429 173
747 l12 270 149 110 c404 298 464 415 339 672 -49 101 -68 108 -96 37z m-1458
-1738 c-16 -19 -16 -31 -2 -40 12 -8 27 1 33 18 13 33 48 43 48 14 0 -9 -31
-33 -68 -53 -41 -22 -64 -48 -58 -64 7 -17 0 -22 -21 -14 -27 10 -23 26 23
109 30 53 57 88 61 77 4 -11 -4 -32 -16 -47z m-3828 -33 c85 -12 178 -33 206
-48 214 -112 381 -549 381 -999 l0 -185 125 -12 c114 -11 213 -40 327 -96 27
-14 41 -40 41 -79 0 -31 -7 -53 -16 -47 -32 20 -17 -18 18 -44 19 -15 24 -27
11 -27 -13 -1 -36 12 -53 28 -26 26 -31 26 -41 -1 -7 -17 -3 -25 8 -18 11 7
20 4 20 -6 0 -30 74 -42 102 -17 20 17 19 14 0 -12 -15 -19 -40 -35 -56 -35
-15 0 -23 -9 -15 -21 7 -12 23 -18 36 -13 31 10 79 -41 63 -67 -8 -11 -3 -33
10 -49 13 -16 17 -39 9 -52 -10 -16 -7 -19 9 -9 14 8 19 29 13 46 -7 19 15 10
59 -23 38 -30 70 -49 70 -42 0 12 -62 113 -80 130 -205 196 -192 798 24 1121
117 176 419 399 541 399 32 0 -6 -34 -49 -43 -32 -7 -32 -12 -2 -73 23 -48 37
-59 49 -40 24 38 21 61 -6 44 -14 -8 -18 -5 -10 7 7 12 2 26 -12 32 -15 6 -11
10 11 11 23 1 39 -17 47 -56 10 -54 128 -59 127 -5 -1 47 -40 68 -42 23 -2
-34 -6 -39 -12 -15 -5 19 -17 35 -27 35 -10 0 -13 -16 -7 -35 10 -31 8 -31
-12 2 -13 20 -19 41 -13 46 21 22 329 50 470 43 l147 -7 -77 34 c-44 19 -62
35 -41 36 49 2 134 -45 188 -103 103 -110 156 -503 66 -486 -22 4 -40 -3 -40
-16 -1 -16 -6 -15 -18 3 -11 18 -21 20 -30 6 -7 -12 -26 -16 -43 -10 -19 7
-29 -2 -30 -26 -2 -35 -3 -35 -17 2 -10 26 -20 31 -30 15 -8 -13 -10 -31 -5
-40 6 -8 -7 -15 -28 -15 -22 0 -39 7 -39 15 0 9 9 16 20 16 11 0 20 9 20 19 0
11 -15 14 -33 7 -23 -9 -29 -5 -19 11 8 12 4 23 -9 23 -13 0 -18 -13 -12 -30
7 -17 1 -30 -13 -30 -14 0 -27 23 -30 51 -2 30 5 46 16 39 11 -7 20 -1 20 12
0 17 11 14 35 -7 23 -19 49 -25 75 -15 25 10 52 5 73 -14 23 -19 37 -22 46 -7
8 12 21 17 30 12 9 -6 27 2 39 16 18 22 13 26 -28 18 -29 -6 -50 0 -50 13 0
12 10 22 21 22 12 0 15 11 7 24 -12 19 -17 19 -23 0 -5 -13 -18 -19 -29 -12
-12 8 -11 -5 3 -30 15 -28 15 -42 2 -42 -12 0 -21 10 -21 22 0 14 -24 19 -60
14 -33 -5 -60 -1 -60 10 0 10 -25 12 -55 5 -44 -11 -50 -9 -30 12 34 34 32 67
-3 39 -15 -13 -32 -17 -37 -8 -5 9 -4 3 0 -14 5 -16 11 -58 12 -93 2 -39 21
-79 53 -106 l50 -43 -66 32 c-36 17 -74 26 -85 20 -11 -7 -28 8 -39 34 l-20
46 5 -50 c3 -34 16 -49 40 -47 37 3 47 -23 16 -42 -10 -6 -24 -2 -31 9 -7 11
-22 15 -33 8 -11 -7 -5 -22 15 -37 25 -18 29 -33 14 -60 -35 -62 -65 64 -44
181 10 54 14 110 8 124 -13 35 -50 11 -49 -32 2 -28 5 -27 19 6 25 59 22 0 -7
-140 -21 -100 -27 -111 -36 -65 -7 30 -5 55 2 55 26 0 -12 219 -45 256 -19 20
-34 61 -34 89 0 29 -7 57 -15 62 -9 5 -12 -26 -8 -69 4 -43 15 -78 25 -78 10
0 18 -10 18 -21 0 -12 -8 -16 -19 -10 -10 7 -17 -6 -16 -27 2 -22 12 -34 23
-27 11 7 13 -3 5 -23 -7 -20 -13 -43 -13 -53 0 -10 -14 -13 -30 -6 -16 6 -30
3 -30 -7 0 -10 21 -18 46 -18 41 0 45 9 42 76 -2 42 3 71 12 66 49 -30 17
-183 -37 -179 -43 3 -44 2 -6 -5 31 -6 42 -19 35 -39 -7 -18 -3 -24 11 -15 13
8 19 3 13 -13 -14 -44 -56 -45 -56 -2 0 23 -12 38 -29 35 -45 -6 -63 -32 -23
-32 19 0 29 -9 22 -20 -7 -12 -22 -15 -33 -8 -12 7 -10 -8 4 -35 36 -68 46
-74 32 -17 -7 28 -7 39 -1 25 6 -14 17 -22 25 -17 7 4 14 -17 15 -47 1 -33 -9
-54 -25 -54 -15 0 -27 7 -27 16 0 32 -37 17 -46 -18 -7 -27 -10 -25 -12 9 -1
24 -11 49 -22 56 -11 7 -20 22 -20 34 0 12 14 10 35 -7 32 -24 32 -24 8 8 -15
19 -36 30 -45 24 -25 -15 -23 -69 2 -69 39 0 19 -74 -33 -119 l-53 -46 11 44
c13 47 -26 28 -78 -38 -19 -25 -28 -25 -55 -3 -33 27 -41 11 -37 -74 0 -15
-11 -22 -26 -16 -15 6 -34 0 -42 -13 -9 -15 -18 -9 -27 16 -10 28 -22 6 -46
-82 -25 -88 -30 -98 -23 -39 8 58 5 72 -10 50 -16 -23 -20 -15 -21 38 0 67 -1
68 -40 32 -62 -56 -53 14 10 82 28 30 49 68 48 86 -1 25 -4 26 -12 4 -19 -47
-72 -101 -90 -90 -9 6 -16 -7 -16 -29 0 -22 -6 -55 -13 -75 -10 -23 -6 -30 10
-20 29 18 29 1 2 -50 -12 -21 -30 -34 -40 -27 -10 6 -19 1 -19 -12 0 -13 -13
-18 -30 -12 -82 32 -15 -29 84 -76 70 -33 104 -60 90 -69 -18 -11 -17 -24 5
-53 29 -38 30 -38 30 6 1 25 10 45 21 45 11 0 65 43 119 95 96 91 334 239 781
483 323 177 381 210 510 293 150 95 385 264 448 322 31 28 86 47 160 56 193
22 422 73 555 123 158 59 148 60 134 -12 -8 -38 -4 -60 11 -60 12 0 22 -10 22
-21 0 -12 -9 -16 -20 -9 -11 7 -20 3 -20 -9 0 -11 15 -21 32 -21 27 0 28 -5 8
-30 -13 -16 -18 -45 -11 -64 7 -20 19 -27 27 -15 38 52 104 70 104 29 0 -23
12 -46 26 -51 34 -13 30 -127 -6 -149 -16 -10 -22 -24 -15 -32 8 -8 33 2 55
22 22 20 40 28 40 18 -1 -37 -34 -67 -106 -97 -41 -18 -74 -43 -74 -56 1 -19
4 -19 17 1 10 15 31 20 53 11 25 -9 32 -7 22 10 -8 12 -5 23 7 23 37 0 22 -63
-18 -74 -40 -10 -74 -66 -40 -66 10 0 19 9 19 20 0 11 9 20 20 20 12 0 11 -15
-4 -39 -13 -21 -33 -33 -43 -26 -12 7 -14 -3 -6 -26 14 -35 12 -35 -31 2 -35
31 -39 31 -18 4 22 -28 22 -41 2 -65 -14 -16 -18 -30 -10 -30 8 0 3 -14 -11
-31 -14 -17 -38 -26 -53 -20 -16 6 -23 2 -17 -8 7 -10 3 -24 -9 -31 -11 -7
-21 8 -23 34 l-2 46 -9 -47 c-6 -30 -19 -42 -38 -35 -17 6 -28 -2 -28 -21 0
-21 -11 -27 -35 -19 -22 8 -16 -3 15 -29 48 -40 48 -41 5 -29 -35 10 -42 6
-33 -19 7 -17 7 -31 -1 -31 -7 0 -20 20 -30 45 l-18 45 -2 -45 c0 -25 -10 -45
-20 -45 -11 0 -15 -13 -8 -30 13 -35 -1 -38 -55 -9 -41 22 -111 -21 -82 -51 8
-7 -8 -11 -36 -7 -33 5 -48 -2 -45 -19 4 -20 -4 -21 -36 -3 -38 20 -40 18 -20
-19 19 -35 17 -39 -12 -28 -23 9 -29 5 -19 -11 9 -14 2 -23 -18 -23 -20 0 -27
10 -19 25 7 14 -8 -1 -35 -33 -47 -55 -136 -63 -136 -11 0 26 27 24 54 -3 16
-16 26 -11 35 20 8 23 23 42 34 42 10 0 14 9 8 19 -7 11 -25 14 -42 8 -16 -6
-29 0 -29 14 0 14 -6 20 -13 13 -7 -7 -1 -27 13 -44 48 -58 2 -55 -48 3 -48
54 -51 55 -51 13 -1 -24 -10 -49 -21 -56 -11 -7 -20 -3 -20 9 0 11 -10 21 -21
21 -13 0 -16 -17 -9 -40 7 -23 4 -40 -9 -40 -11 0 -21 10 -21 23 0 13 -7 17
-15 9 -21 -21 -18 -80 4 -96 30 -21 2 -39 -37 -24 -19 7 -30 26 -24 41 19 49
-4 29 -48 -43 -24 -38 -52 -70 -63 -70 -11 0 -14 9 -7 20 7 11 3 20 -9 20 -11
0 -21 10 -21 22 0 12 14 17 30 11 17 -7 30 -3 30 8 0 31 -60 22 -73 -12 -7
-17 -25 -26 -41 -20 -16 6 -23 2 -15 -11 7 -11 26 -16 41 -10 24 9 25 3 5 -33
-15 -28 -27 -35 -32 -20 -5 14 -28 25 -52 25 -35 -1 -37 -4 -13 -20 26 -17 26
-19 -1 -20 -17 0 -43 11 -58 25 -16 15 -22 16 -14 2 7 -12 -1 -34 -17 -47 -38
-31 -38 -17 0 73 46 111 34 128 -20 27 -27 -49 -49 -76 -49 -59 -1 17 10 42
23 55 13 13 17 29 10 37 -20 20 -36 -2 -56 -77 l-17 -66 10 70 c5 39 14 102
18 140 5 39 17 117 26 175 10 58 10 105 1 105 -9 0 -16 -31 -16 -68 0 -38 -26
-123 -57 -190 l-58 -121 -2 90 c-1 50 -7 99 -13 108 -6 10 0 25 13 33 14 9 18
6 9 -9 -8 -13 -5 -23 6 -23 34 0 39 29 12 67 -26 34 -27 34 -48 -1 -11 -20
-21 -27 -21 -16 0 11 13 37 28 57 35 46 100 -35 80 -99 -11 -31 -9 -33 9 -8
30 42 27 78 -8 113 -16 16 -29 45 -29 63 1 24 7 21 20 -11 10 -25 23 -45 30
-45 8 0 8 13 2 29 -6 17 3 34 23 40 24 8 35 35 37 93 2 45 13 92 26 105 21 21
13 -166 -10 -242 -4 -14 1 -25 12 -25 10 0 19 39 19 88 0 82 37 148 67 118 7
-7 13 7 13 30 0 30 -9 39 -30 31 -16 -6 -30 -2 -30 9 0 36 67 47 85 14 14 -24
25 -27 45 -10 19 15 30 16 40 1 7 -12 21 -16 32 -10 10 6 34 -4 53 -23 33 -34
33 -35 -10 -23 -51 13 -56 4 -19 -34 22 -22 31 -20 50 11 29 46 31 85 4 68
-11 -7 -20 0 -20 15 0 18 -24 25 -75 23 -41 -1 -87 7 -101 18 -18 14 -47 9
-100 -19 -41 -22 -87 -39 -104 -38 -33 1 -55 71 -21 71 11 0 21 9 21 20 0 56
-57 9 -79 -65 -34 -112 -165 -375 -234 -470 -75 -103 -211 -245 -234 -245 -11
0 -13 6 -6 14 27 26 -73 63 -121 44 -31 -11 -46 -10 -46 5 0 14 -13 12 -34 -6
-19 -15 -27 -17 -20 -3 25 40 -27 130 -60 103 -20 -17 -36 -14 -64 12 -26 22
-42 26 -52 12 -7 -12 -1 -20 13 -16 29 6 40 -69 14 -108 -13 -21 -16 -19 -17
7 0 44 -25 58 -120 65 -50 3 -74 -2 -66 -15 8 -13 0 -16 -21 -8 -18 7 -33 4
-33 -8 0 -16 120 -82 160 -87 81 -10 183 -65 192 -103 8 -32 21 -42 44 -33 21
8 23 15 8 20 -39 13 -27 42 13 32 20 -6 66 -2 103 7 163 43 427 -30 616 -169
l67 -49 123 44 c136 49 538 237 554 259 6 8 25 19 43 26 36 13 328 205 603
397 97 68 181 118 187 112 12 -12 -20 -77 -58 -118 -14 -15 -34 -42 -45 -59
-281 -438 -660 -726 -1150 -876 -133 -41 -322 -193 -351 -283 -6 -21 -20 -38
-31 -38 -12 0 -12 -15 1 -39 12 -21 21 -55 20 -75 0 -22 -15 -8 -37 37 -112
224 -200 288 -454 326 -107 16 -202 25 -210 20 -8 -5 -18 -2 -21 6 -4 8 -55
37 -113 64 -58 27 -114 59 -125 72 -14 17 -66 5 -204 -48 -227 -87 -561 -113
-613 -48 -25 32 -26 32 -16 1 10 -29 0 -34 -57 -32 -38 1 -69 10 -69 19 0 28
-55 19 -66 -11 -19 -48 -178 5 -162 54 10 31 4 36 -28 25 -23 -7 -47 -3 -54 9
-17 28 -70 -12 -70 -52 0 -16 -9 -28 -20 -28 -11 0 -20 -15 -20 -33 0 -127
-620 88 -965 336 -74 53 -139 97 -145 97 -24 0 -6 -42 36 -85 26 -25 43 -57
39 -71 -5 -13 2 -24 15 -24 12 0 21 -16 19 -35 -10 -97 1 -122 56 -129 31 -3
53 -17 50 -31 -3 -14 4 -25 15 -25 11 0 21 25 21 55 2 49 4 50 19 15 26 -61
23 -86 -11 -94 -28 -5 -28 -10 1 -46 20 -25 30 -29 25 -10 -5 16 4 42 19 57
21 21 22 34 4 55 -17 20 -17 28 0 28 12 0 22 -10 22 -22 0 -12 13 -17 29 -11
19 7 31 -4 35 -33 4 -30 19 -44 49 -43 28 1 39 -8 33 -25 -6 -14 -18 -21 -28
-15 -34 21 -18 -18 25 -65 51 -53 77 -59 77 -16 0 17 13 30 29 30 15 0 32 16
37 35 7 27 10 24 12 -9 l2 -45 75 51 c42 28 77 41 81 29 5 -14 19 -14 46 0
104 56 -81 -176 -350 -438 -344 -334 -455 -496 -545 -793 -100 -331 -8 -876
212 -1249 79 -133 77 -143 -24 -139 -122 6 -150 26 -165 123 -8 47 -44 207
-81 355 -37 149 -104 441 -150 650 -87 397 -104 472 -135 593 -19 72 -3 117
42 117 166 0 492 322 524 516 14 86 -20 284 -50 284 -8 0 -27 29 -41 65 -15
36 -83 185 -153 331 -69 146 -126 270 -126 275 0 5 -36 62 -79 125 -282 413
-340 1004 -98 1004 57 0 92 29 59 49 -12 7 -12 36 -1 74 24 83 37 94 67 53 22
-31 25 -28 25 25 0 40 -10 59 -31 59 -22 0 -18 9 14 31 24 17 54 25 67 17 14
-8 18 -5 10 7 -12 19 144 82 277 111 82 19 593 13 743 -8z m680 -249 c11 -27
17 -26 51 5 30 27 38 28 32 5 -4 -20 8 -27 39 -23 27 4 45 -4 46 -20 0 -17 9
-15 27 9 30 40 109 -21 83 -64 -12 -19 13 -30 54 -23 8 1 15 -11 15 -28 0 -16
-6 -30 -13 -30 -30 0 -87 68 -87 103 0 20 -10 37 -21 37 -13 0 -16 -17 -8 -42
14 -45 -62 -21 -96 30 -8 13 -14 14 -14 2 0 -38 29 -64 100 -87 39 -13 84 -40
102 -60 17 -20 51 -51 76 -68 25 -18 42 -42 38 -55 -5 -14 -31 -2 -65 30 -46
42 -62 48 -77 27 -13 -19 -16 -15 -9 17 9 41 -36 82 -62 56 -6 -5 0 -10 14
-10 13 0 22 -11 21 -25 -8 -61 2 -77 41 -65 28 9 40 4 40 -19 0 -17 7 -31 16
-31 9 0 34 -14 55 -31 38 -31 38 -32 -6 -22 -25 5 -50 1 -56 -9 -6 -10 3 -18
20 -18 17 0 31 -9 31 -19 0 -11 -13 -15 -30 -8 -19 7 -30 0 -30 -20 0 -19 -11
-27 -28 -21 -53 20 -51 -26 3 -50 39 -19 46 -29 26 -41 -15 -9 -22 -34 -17
-56 7 -24 0 -38 -17 -38 -17 0 -23 13 -17 33 6 20 0 33 -16 33 -17 0 -23 -19
-18 -56 5 -31 16 -52 26 -46 29 18 20 -24 -10 -50 -21 -17 -24 -39 -11 -86 24
-83 5 -99 -23 -18 -20 57 -58 71 -58 21 0 -11 7 -16 16 -11 8 6 16 -14 18 -43
1 -30 -3 -38 -8 -19 -5 19 -17 35 -27 35 -11 0 -19 19 -19 41 0 52 -35 119
-62 119 -11 0 -15 -9 -8 -20 7 -11 2 -20 -10 -20 -12 0 -17 -9 -10 -20 7 -11
2 -20 -11 -20 -15 0 -18 13 -8 35 8 19 15 51 16 70 1 19 10 35 20 35 10 0 32
-16 47 -35 28 -33 29 -33 18 2 -7 20 -12 45 -12 56 0 11 -10 13 -22 6 -15 -10
-18 1 -8 33 13 45 13 46 -15 10 -21 -28 -33 -32 -44 -13 -9 13 -5 35 7 47 31
31 27 66 -11 104 -27 27 -36 28 -52 6 -13 -18 -14 -14 -4 14 8 22 13 67 12
100 -2 33 7 74 18 90 17 23 19 19 8 -18 -9 -32 -6 -43 9 -33 27 16 27 17 3
-65 -11 -40 -11 -60 0 -53 11 6 19 0 19 -15 1 -19 6 -18 22 4 16 23 18 19 7
-18 -9 -32 -6 -43 9 -33 14 8 18 42 11 87 -6 41 -12 94 -12 119 -1 25 -8 41
-15 36 -8 -5 -27 8 -42 29 -32 44 -63 34 -48 -16 10 -30 8 -29 -12 2 -17 26
-17 43 -1 63 12 14 16 41 9 58 -25 65 12 31 41 -37 16 -38 43 -70 60 -70 45 0
38 34 -10 46 -33 9 -38 21 -27 65 9 37 7 51 -8 42 -12 -8 -28 -3 -36 10 -20
33 -68 -37 -55 -80 8 -26 5 -25 -13 3 -19 30 -17 45 11 75 36 40 14 56 -25 17
-15 -15 -26 -15 -37 3 -10 16 -7 20 8 11 13 -8 23 -5 23 7 0 33 80 25 93 -10z
m362 -51 c-3 -13 6 -27 20 -32 14 -5 26 7 27 27 2 34 3 34 12 2 5 -20 17 -30
28 -24 10 6 18 1 18 -11 0 -13 16 -18 38 -11 43 14 72 -16 51 -51 -10 -16 -19
-14 -31 5 -12 19 -17 20 -18 3 0 -14 -13 -20 -30 -13 -16 6 -30 1 -30 -11 0
-12 20 -23 45 -24 36 -2 38 -5 9 -12 -21 -5 -33 -21 -27 -35 5 -13 1 -37 -9
-53 -13 -22 -17 -18 -18 14 0 25 -20 51 -51 65 -42 19 -47 29 -30 62 17 31 14
41 -19 51 -41 13 -50 33 -27 57 22 21 47 15 42 -9z m1760 -89 c77 3 77 2 24
-55 -38 -41 -40 -41 -26 -4 12 34 10 36 -17 15 -26 -22 -37 -17 -67 30 -23 35
-26 47 -7 33 15 -12 57 -20 93 -19z m155 -27 c7 -17 6 -24 -2 -16 -8 8 -36 0
-61 -16 -52 -34 -58 -27 -24 27 28 45 71 47 87 5z m-247 -599 c12 17 14 6 5
-33 -7 -33 -22 -69 -33 -80 -13 -13 -16 -2 -8 34 7 29 4 59 -7 66 -11 7 -20
23 -19 36 0 13 10 7 22 -13 18 -31 25 -33 40 -10z m-1352 -277 c-6 -31 1 -61
14 -69 15 -9 8 -14 -18 -12 -43 3 -52 58 -19 112 24 39 33 26 23 -31z m197 23
c6 -18 3 -26 -8 -19 -11 7 -20 2 -20 -10 0 -12 -11 -16 -23 -8 -16 10 -20 4
-12 -17 7 -17 1 -36 -12 -41 -18 -7 -23 7 -17 47 5 38 17 53 36 45 15 -5 28 0
28 12 0 32 14 27 28 -9z m1768 -177 c-4 -40 -11 -45 -39 -30 -49 26 -57 23
-44 -17 9 -30 7 -30 -11 -5 -34 48 -26 65 26 55 35 -6 45 -1 38 18 -6 15 0 27
12 27 12 0 20 -22 18 -48z m-685 -111 c-18 -33 -41 -61 -52 -61 -29 0 -23 16
21 60 22 22 41 60 42 85 2 32 5 35 12 11 4 -18 -6 -61 -23 -95z m756 67 c-6
-15 -2 -28 9 -28 11 0 25 14 31 30 13 34 53 41 53 9 0 -12 -8 -16 -19 -10 -10
6 -24 -7 -31 -30 -9 -28 -24 -37 -50 -29 -20 6 -42 2 -49 -9 -8 -12 -2 -21 11
-21 14 0 19 -6 12 -13 -7 -7 -27 -1 -44 13 -25 21 -30 18 -32 -23 -2 -31 -6
-36 -12 -13 -8 30 -14 29 -59 -10 -28 -24 -61 -45 -74 -47 -13 -1 -30 -5 -38
-7 -8 -3 -26 -6 -40 -8 -14 -2 -22 -20 -18 -40 6 -35 4 -36 -27 -5 -29 29 -36
30 -63 3 -16 -16 -46 -30 -65 -30 -19 0 -42 -7 -50 -15 -22 -22 -160 -18 -177
5 -26 35 -16 56 14 30 24 -19 36 -18 62 8 17 18 57 32 89 32 31 0 60 11 64 23
8 23 43 33 160 45 30 3 66 15 80 27 14 12 33 22 42 22 70 1 194 72 183 106 -9
27 -4 34 18 25 17 -6 26 -24 20 -40z m-827 -38 c0 -56 -59 -94 -94 -59 -17 17
-49 26 -73 20 -24 -6 -32 -5 -18 1 14 6 20 21 13 32 -15 23 68 2 104 -26 22
-18 48 -4 48 25 0 9 -13 11 -30 4 -16 -6 -30 -2 -30 9 0 23 42 43 65 30 8 -5
15 -21 15 -36z m702 -668 c14 -73 12 -121 -5 -110 -11 6 -15 25 -9 41 6 16 -2
34 -18 40 -17 6 -30 18 -30 26 0 17 59 20 62 3z m-4022 -122 c0 -26 -13 -40
-39 -40 -50 0 -58 16 -47 93 12 73 86 27 86 -53z m3863 18 c30 -16 47 -16 63
0 39 39 61 23 24 -18 -20 -22 -30 -40 -22 -40 8 0 -4 -24 -27 -53 -22 -29 -41
-61 -41 -72 0 -11 -20 -53 -45 -92 -24 -40 -44 -85 -45 -101 0 -16 -13 -33
-28 -38 -20 -7 -24 1 -16 23 9 24 2 33 -27 33 -21 0 -39 10 -39 21 0 13 17 16
40 9 24 -8 40 -4 40 10 0 12 -8 17 -18 11 -29 -18 -41 67 -18 133 17 47 15 64
-5 77 -20 12 -13 23 27 41 42 19 49 30 31 51 -28 34 45 38 106 5z m-263 -59
c0 -43 -13 -66 -45 -80 -42 -19 -42 -19 10 -12 44 6 55 -1 55 -31 0 -24 -9
-33 -23 -24 -16 10 -20 1 -12 -29 6 -24 3 -43 -7 -43 -10 0 -18 -23 -18 -51 0
-32 -8 -46 -22 -38 -12 8 -18 35 -13 61 11 58 -16 65 -31 8 -6 -22 -25 -40
-42 -40 -19 0 -32 17 -32 40 0 22 -10 40 -22 40 -16 0 -16 9 1 29 14 16 20 41
14 55 -6 16 -10 13 -11 -9 -2 -43 -42 -47 -42 -4 0 16 14 36 31 42 16 6 44 35
61 64 25 44 29 46 22 10 -5 -23 -2 -53 6 -66 9 -15 20 2 29 42 13 59 16 62 31
27 17 -39 17 -39 19 2 1 37 17 68 34 68 4 0 7 -27 7 -61z m-497 -137 c17 23
19 23 11 -2 -5 -16 -20 -27 -34 -24 -14 3 -20 -6 -14 -23 11 -29 -20 -73 -52
-73 -10 0 -13 20 -7 44 7 27 -1 59 -21 80 -18 20 -22 36 -10 36 12 0 31 -16
43 -35 18 -31 22 -30 35 15 l15 50 7 -48 c6 -38 12 -43 27 -20z m504 -157 c-2
-30 -4 -61 -5 -69 -1 -8 -16 -10 -32 -3 -21 8 -27 2 -19 -20 7 -17 25 -26 41
-20 20 8 25 2 16 -22 -8 -20 -26 -29 -46 -22 -27 9 -26 7 3 -16 19 -15 28 -34
20 -42 -8 -8 -16 -20 -17 -28 -10 -81 -88 -115 -88 -38 1 36 5 39 19 16 10
-17 22 -26 26 -20 16 21 -10 258 -27 248 -10 -7 -13 -20 -7 -30 6 -11 1 -19
-12 -19 -13 0 -18 13 -12 29 6 15 0 33 -13 38 -13 5 -4 11 20 11 24 1 49 -7
56 -18 23 -37 50 -21 50 30 0 28 7 50 16 50 8 0 14 -25 11 -55z"/>
<path d="M2552 5348 c-20 -52 -14 -65 28 -54 22 6 40 13 40 17 0 22 -27 69
-40 69 -9 0 -21 -14 -28 -32z"/>
<path d="M4600 5303 c-11 -3 -20 -14 -20 -24 0 -10 15 -12 33 -5 23 9 29 5 19
-11 -20 -32 -72 -29 -72 5 0 16 -15 26 -35 22 -19 -4 -41 -8 -49 -8 -21 -3 4
-62 26 -62 9 0 11 16 4 35 -12 33 -11 33 27 0 52 -45 65 -44 121 8 25 24 46
33 46 21 0 -14 19 -20 45 -15 25 4 52 9 60 10 8 0 15 8 15 16 0 15 -180 22
-220 8z"/>
<path d="M6411 5214 c10 -24 3 -34 -24 -34 -20 0 -50 -10 -67 -21 -23 -15 -17
-18 24 -11 38 6 56 -1 63 -25 6 -23 9 -19 11 12 1 25 12 45 24 45 12 0 17 -13
11 -29 -6 -17 -3 -35 8 -42 37 -23 18 65 -22 102 -36 32 -39 33 -28 3z"/>
<path d="M2555 5188 c-6 -6 -26 -13 -45 -16 -18 -3 -41 -18 -52 -33 -15 -25
-21 -25 -38 1 -17 27 -19 27 -20 0 -1 -27 -3 -27 -22 0 -17 24 -19 24 -13 2
12 -47 110 -48 159 -3 50 47 85 54 70 14 -6 -14 2 -26 17 -26 20 0 22 9 7 36
-20 38 -42 46 -63 25z"/>
<path d="M1432 5148 c-17 -44 -16 -48 17 -48 38 0 63 -80 31 -100 -19 -12 -19
-17 1 -24 14 -4 29 -48 34 -97 4 -49 17 -99 27 -112 13 -15 12 -28 -3 -38 -17
-10 -16 -19 4 -31 22 -15 22 -17 -1 -18 -22 0 -20 -9 8 -40 20 -22 27 -40 16
-40 -21 0 -22 -58 -1 -91 7 -12 15 -74 18 -140 3 -65 12 -124 20 -129 8 -6 19
-38 24 -70 5 -33 11 -60 13 -60 2 0 6 -13 10 -30 26 -118 61 -233 76 -250 11
-12 13 -2 4 28 -10 32 -7 43 8 33 12 -7 22 -27 22 -43 0 -17 9 -24 21 -17 14
8 11 29 -10 60 -27 42 -27 46 -1 36 16 -6 30 -19 30 -27 0 -21 54 -14 74 9 9
10 5 11 -8 3 -14 -8 -35 4 -50 27 -14 23 -35 41 -47 41 -11 0 -22 20 -24 45
-2 34 1 38 15 15 10 -16 24 -23 32 -15 27 27 -35 78 -65 53 -17 -15 -27 -16
-27 -2 0 11 11 24 25 29 19 7 20 27 3 92 -19 72 -18 87 10 104 28 17 27 19 -6
14 -38 -5 -66 63 -34 85 9 5 23 30 31 55 16 52 -18 62 -38 11 -11 -30 -16 -31
-32 -5 -28 44 -23 59 20 59 21 0 44 9 51 20 7 11 0 15 -16 9 -36 -14 -65 25
-81 106 -11 62 14 93 33 40 5 -14 15 -19 24 -11 8 8 0 29 -18 46 -38 39 -40
54 -8 86 13 13 15 24 5 24 -10 0 -10 7 2 15 55 39 109 141 80 152 -15 6 -40
-5 -55 -23 -23 -31 -22 -31 9 -7 43 34 45 7 4 -53 -35 -49 -62 -56 -74 -19 -5
14 -5 0 0 -30 5 -31 -1 -55 -13 -55 -23 0 -29 33 -22 129 3 50 -1 55 -26 35
-25 -21 -31 -15 -38 34 -5 33 -2 56 6 51 7 -5 19 5 26 23 18 48 15 51 -27 29
-53 -29 -110 -6 -79 31 14 17 15 28 3 28 -12 0 -26 -14 -33 -32z"/>
<path d="M4613 5166 c-7 -7 -8 -45 -2 -85 l11 -71 -32 55 c-17 31 -27 64 -21
74 6 9 -7 13 -29 7 -57 -15 -64 -34 -38 -99 13 -31 27 -46 32 -33 5 13 -1 42
-13 65 -15 27 -16 41 -2 41 12 0 21 -13 21 -30 0 -16 10 -30 22 -30 12 0 17
-14 10 -31 -8 -23 -2 -30 23 -25 19 3 38 27 41 51 4 25 14 45 23 45 9 0 22 20
28 45 11 44 10 44 -30 -5 -39 -49 -40 -49 -31 -5 11 48 9 53 -13 31z"/>
<path d="M4712 5118 c-30 -61 -28 -98 7 -98 10 0 13 18 7 40 -6 22 -2 40 9 40
12 0 19 -16 18 -35 -2 -24 14 -37 52 -41 55 -7 77 24 30 43 -14 5 -7 11 16 11
23 1 52 -9 65 -22 13 -13 24 -17 24 -9 0 48 -55 70 -106 43 -51 -26 -94 15
-78 75 10 37 -16 9 -44 -47z"/>
<path d="M1980 5112 c-11 -11 -19 -38 -18 -61 1 -33 6 -30 29 19 15 33 28 50
28 37 1 -12 23 -21 51 -20 27 2 47 12 43 23 -8 26 -107 28 -133 2z"/>
<path d="M4320 5126 c0 -13 9 -29 20 -36 11 -7 20 -20 20 -29 0 -24 -101 -86
-116 -72 -7 7 0 21 16 31 23 14 21 18 -11 15 -24 -2 -42 -18 -44 -39 -1 -20 6
-32 16 -25 11 6 19 1 19 -12 0 -17 10 -16 34 4 29 23 32 23 22 -4 -8 -20 4
-42 31 -59 37 -23 40 -22 19 2 -25 30 -24 86 0 111 8 8 28 -3 44 -24 28 -36
29 -35 10 18 -25 69 -80 151 -80 119z"/>
<path d="M6191 5118 c13 -21 -68 -92 -96 -83 -21 7 -19 -30 2 -43 9 -6 36 7
59 29 51 47 64 49 64 9 0 -17 -18 -30 -40 -30 -22 0 -40 -8 -40 -17 0 -10 -23
-18 -51 -18 -32 0 -48 9 -42 24 5 13 -3 24 -17 24 -15 0 -31 -15 -36 -35 -7
-24 -1 -32 18 -24 33 12 38 -25 7 -45 -12 -7 -39 3 -61 23 -38 34 -39 34 -25
-1 9 -26 7 -33 -10 -23 -15 9 -23 -1 -23 -28 0 -25 -9 -37 -22 -29 -12 7 -17
29 -12 49 7 26 0 32 -29 25 -45 -12 -45 -14 -8 -51 32 -32 -13 -126 -50 -103
-11 6 -19 0 -19 -14 0 -13 -13 -7 -28 14 -16 21 -24 43 -19 48 5 6 18 -3 28
-20 10 -16 19 -19 19 -8 0 12 -14 39 -31 60 -18 22 -27 28 -20 15 15 -29 -22
-54 -39 -26 -7 11 -23 20 -36 20 -16 -1 -15 -6 3 -18 22 -14 22 -20 1 -33 -15
-9 -29 -6 -33 7 -5 13 -19 24 -32 24 -12 0 12 -31 54 -69 42 -37 90 -63 105
-57 18 6 28 -3 28 -25 0 -40 21 -28 27 15 6 37 93 122 110 106 7 -7 -6 -29
-29 -48 -24 -19 -50 -55 -58 -81 -13 -41 -11 -43 16 -19 17 15 29 36 27 47 -6
35 70 35 108 0 48 -44 52 -84 5 -46 -21 16 -17 3 11 -33 26 -34 37 -62 24 -66
-11 -4 -21 -16 -21 -27 0 -11 19 -14 43 -6 34 11 41 7 31 -19 -7 -17 -5 -32 5
-32 10 0 21 11 26 24 10 30 55 2 55 -35 0 -16 -12 -23 -30 -16 -16 6 -30 1
-30 -11 0 -12 19 -22 43 -22 36 0 40 8 30 60 -9 43 -4 60 15 60 15 0 34 16 41
35 10 26 8 29 -10 12 -37 -37 -99 -8 -99 45 0 50 -31 66 -45 23 -4 -13 9 -42
29 -64 23 -25 29 -43 16 -48 -28 -9 -79 55 -79 101 -1 18 -15 47 -32 64 -17
18 -26 40 -20 50 6 10 -9 14 -34 8 l-45 -11 47 35 c34 25 52 29 69 12 12 -12
31 -22 42 -22 12 0 1 14 -24 31 -24 17 -44 41 -44 53 0 13 10 13 29 -3 30 -25
151 43 151 85 0 10 13 13 28 7 16 -6 34 3 40 20 7 17 22 23 37 14 19 -11 20
-8 3 14 -12 16 -28 54 -36 84 -7 30 -22 55 -34 55 -11 0 -14 -10 -7 -22z"/>
<path d="M6721 5092 c-12 -16 -15 -33 -5 -39 9 -6 13 -39 8 -72 -5 -36 0 -61
13 -61 12 0 16 14 9 32 -6 18 1 40 16 49 22 14 23 22 3 42 -30 30 -33 65 -5
47 11 -7 20 -3 20 9 0 30 -31 26 -59 -7z"/>
<path d="M1827 5029 c-27 -42 -28 -55 -7 -75 14 -13 21 -15 14 -3 -21 39 19
80 52 52 24 -19 31 -16 40 17 5 22 2 40 -8 40 -10 0 -18 -10 -18 -21 0 -12 -9
-16 -20 -9 -12 7 -15 21 -9 31 27 44 -13 14 -44 -32z"/>
<path d="M2563 5038 c-14 -23 -19 -60 -11 -84 19 -64 -17 -23 -47 52 -23 58
-24 59 -15 9 12 -63 -4 -71 -42 -20 -16 21 -27 25 -27 10 -1 -14 -11 -25 -23
-25 -13 0 -17 15 -9 35 10 27 8 29 -10 12 -18 -18 -16 -34 9 -70 28 -40 32
-41 32 -9 0 32 5 33 32 10 21 -17 24 -29 10 -34 -12 -4 -17 -16 -10 -27 7 -11
24 -4 39 17 26 34 28 34 28 1 1 -42 15 -44 51 -8 18 18 21 34 8 47 -11 11 -13
35 -6 54 11 28 17 30 30 9 10 -15 17 -18 17 -7 0 52 -31 67 -56 28z"/>
<path d="M2260 5049 c0 -6 19 -36 42 -68 24 -31 38 -66 31 -76 -6 -10 0 -18
15 -18 14 0 25 12 25 26 0 15 -7 27 -16 27 -9 0 -17 14 -17 30 0 17 -9 30 -20
30 -11 0 -20 14 -20 30 0 17 -9 30 -20 30 -11 0 -20 -5 -20 -11z"/>
<path d="M2160 5026 c0 -11 25 -32 55 -47 30 -15 59 -30 63 -33 4 -3 -4 -19
-18 -36 -14 -17 -16 -30 -5 -30 42 0 46 66 6 104 -23 21 -41 32 -41 24 0 -7
-13 -2 -30 12 -16 14 -30 16 -30 6z"/>
<path d="M4068 5017 c-8 -13 -6 -18 5 -11 50 31 76 -24 33 -70 -38 -41 -39
-49 -12 -74 27 -24 29 -22 17 15 -10 32 -5 43 18 43 17 0 31 8 31 18 0 10 6
34 13 54 9 22 6 30 -8 21 -12 -8 -28 -5 -35 7 -16 27 -44 25 -62 -3z"/>
<path d="M2100 5001 c0 -11 -12 -15 -28 -9 -26 10 -63 -73 -55 -125 7 -42 -32
-48 -43 -7 -6 22 -2 45 8 51 10 6 17 27 16 45 -1 28 -3 28 -12 4 -6 -16 -24
-45 -40 -63 -19 -22 -22 -37 -7 -46 11 -7 21 -23 21 -35 0 -12 -17 -7 -37 11
-45 41 -106 -52 -63 -95 16 -16 19 -13 9 13 -12 32 8 45 57 37 43 -7 132 66
111 92 -14 16 -14 26 -2 26 75 0 61 -59 -28 -118 -90 -60 -106 -84 -26 -41 28
14 39 14 39 -1 0 -13 9 -17 20 -10 12 7 16 20 11 28 -16 27 80 104 113 91 22
-8 34 5 42 44 9 52 8 54 -18 18 -15 -21 -33 -32 -41 -25 -7 7 -3 25 8 39 16
18 14 35 -4 60 -28 39 -51 46 -51 16z m40 -46 c-1 -54 -38 -88 -60 -55 -30 46
-24 68 10 40 26 -22 29 -20 18 7 -7 18 -2 33 10 33 12 0 22 -11 22 -25z"/>
<path d="M6596 4916 c-19 -23 -29 -52 -22 -63 7 -11 19 -4 28 18 8 22 16 29
17 16 0 -13 18 -19 41 -13 22 6 35 19 28 29 -6 10 -18 13 -28 7 -9 -6 -20 3
-23 19 -6 23 -15 21 -41 -13z"/>
<path d="M4174 4913 c-9 -24 -6 -30 10 -21 15 10 18 3 9 -20 -7 -20 -13 -40
-13 -45 0 -5 -9 -4 -20 3 -11 7 -20 3 -20 -7 0 -11 -14 -34 -31 -52 -24 -23
-25 -31 -5 -31 14 1 51 36 81 79 56 79 69 112 37 92 -10 -6 -22 0 -27 13 -5
15 -13 11 -21 -11z"/>
<path d="M6520 4920 c0 -12 -9 -17 -20 -10 -11 7 -20 3 -20 -8 0 -12 -24 -27
-54 -35 -30 -7 -72 -30 -93 -49 -22 -20 -63 -34 -96 -32 -65 5 -73 23 -22 52
19 10 29 24 23 31 -15 15 -98 -57 -98 -86 0 -13 31 -23 70 -23 39 0 70 -8 70
-18 0 -63 185 17 193 84 6 59 9 62 29 29 11 -19 15 -44 8 -55 -7 -11 -3 -20 9
-20 11 0 21 10 21 21 0 12 11 15 25 6 14 -9 9 8 -9 37 -25 37 -28 55 -11 61
17 6 17 11 -1 23 -13 8 -24 4 -24 -8z m-85 -109 c-14 -15 -28 -24 -32 -20 -4
4 -21 -6 -37 -22 -16 -16 -39 -23 -51 -16 -14 9 -6 21 21 34 24 10 44 25 44
32 0 7 18 14 40 15 32 3 34 -2 15 -23z"/>
<path d="M4286 4873 c8 -20 14 -47 14 -60 0 -13 9 -10 20 7 17 26 19 25 20 -5
0 -47 -7 -66 -24 -60 -8 2 -9 -10 -2 -27 10 -28 15 -28 33 5 26 47 36 131 13
117 -9 -6 -33 5 -52 25 -34 33 -35 33 -22 -2z"/>
<path d="M4642 4867 c-1 -23 12 -53 28 -67 26 -21 30 -15 27 43 -2 57 -4 59
-13 17 l-10 -50 -15 50 c-13 45 -15 45 -17 7z"/>
<path d="M2700 4850 c0 -36 -53 -41 -65 -6 -5 15 -13 11 -21 -10 -10 -28 -1
-34 52 -34 91 1 123 25 73 56 -32 20 -39 19 -39 -6z"/>
<path d="M2508 4830 c4 -11 18 -17 32 -14 19 4 17 -8 -5 -42 -20 -29 -25 -58
-15 -75 10 -15 12 -36 6 -46 -7 -11 -3 -13 9 -6 12 7 17 31 11 53 -6 22 -2 51
9 65 45 59 43 91 -6 88 -27 -2 -46 -12 -41 -23z"/>
<path d="M2360 4801 c0 -10 17 -24 38 -30 47 -15 71 -70 43 -98 -32 -32 -25
-73 11 -73 22 0 28 -11 19 -35 -11 -29 -9 -30 13 -9 21 22 19 32 -14 57 -37
28 -38 31 -6 55 26 19 29 31 12 48 -16 16 -16 30 2 51 15 18 17 34 4 41 -10 7
-22 -3 -25 -21 -7 -32 -9 -32 -41 -1 -37 38 -56 43 -56 15z"/>
<path d="M2110 4779 c-22 -9 -29 -17 -15 -18 18 -1 22 -23 13 -79 -16 -100 11
-159 47 -102 20 32 19 37 -5 27 -41 -15 -38 13 5 46 28 21 28 25 3 16 -25 -9
-30 1 -23 49 6 40 18 56 37 48 15 -5 28 -6 28 0 0 20 -52 28 -90 13z"/>
<path d="M2309 4739 c-7 -12 -38 -16 -71 -9 -67 15 -68 13 -26 -63 25 -46 30
-48 22 -12 -11 47 4 53 81 32 49 -13 28 -67 -26 -67 -37 0 -54 -34 -26 -52 15
-9 18 -5 7 12 -10 17 -6 22 12 15 15 -5 27 -25 25 -43 -2 -19 3 -29 10 -22 7
8 13 32 13 55 0 23 11 45 25 50 16 5 21 -4 14 -28 -12 -36 -11 -36 11 0 20 30
16 45 -20 83 -32 34 -36 48 -16 56 17 7 18 11 2 12 -13 1 -30 -8 -37 -19z"/>
<path d="M6187 4725 c-48 -8 -72 -49 -54 -95 19 -51 52 -34 39 20 -8 32 -4 50
11 50 13 0 18 -5 12 -12 -6 -6 1 -26 16 -45 16 -18 42 -51 59 -73 29 -38 29
-37 11 13 -10 29 -14 70 -8 92 11 44 -19 61 -86 50z"/>
<path d="M1735 4708 c-7 -6 -8 -23 -2 -37 5 -15 -10 -31 -34 -37 -42 -11 -38
-54 6 -54 12 0 16 6 9 12 -7 7 5 28 27 45 24 21 33 43 23 58 -9 14 -22 20 -29
13z"/>
<path d="M4008 4691 c-21 -16 -26 -30 -13 -38 11 -7 27 3 34 22 13 33 15 33
40 -1 21 -29 28 -30 37 -7 15 39 -55 56 -98 24z"/>
<path d="M5611 4689 c-35 -36 -41 -69 -11 -69 11 0 20 12 20 27 0 14 14 26 30
26 17 0 30 -8 30 -18 0 -9 8 -12 18 -6 10 6 23 0 29 -14 5 -14 11 -3 11 23 1
27 -4 43 -11 36 -7 -7 -28 -4 -48 7 -26 14 -45 10 -68 -12z"/>
<path d="M1888 4668 c7 -17 12 -40 12 -50 0 -10 19 1 42 24 23 23 35 47 27 55
-8 7 -18 2 -23 -12 -5 -14 -18 -25 -29 -25 -11 0 -14 9 -7 20 7 11 2 20 -11
20 -13 0 -18 -14 -11 -32z"/>
<path d="M6302 4646 c-1 -35 7 -69 17 -75 11 -7 14 -27 7 -45 -9 -23 -5 -28
12 -17 14 8 19 29 11 48 -8 18 -21 60 -29 93 l-16 60 -2 -64z"/>
<path d="M2660 4658 c0 -12 -15 -17 -33 -10 -28 11 -29 8 -6 -19 23 -29 28
-29 43 0 21 37 64 42 51 6 -24 -65 13 -95 65 -52 l50 40 -53 -11 c-46 -10 -52
-6 -43 28 8 31 1 40 -32 40 -23 0 -42 -10 -42 -22z"/>
<path d="M3875 4643 c-7 -28 -2 -37 17 -29 16 5 28 1 28 -10 0 -11 -13 -25
-30 -31 -16 -7 -30 -23 -30 -37 1 -18 6 -17 20 4 17 27 20 27 21 0 1 -16 11
-4 23 27 16 44 14 63 -9 87 -26 26 -31 24 -40 -11z"/>
<path d="M3977 4616 c22 -29 20 -41 -15 -79 -46 -49 -51 -72 -23 -116 26 -41
48 -13 48 59 0 48 5 55 27 37 15 -13 33 -17 40 -10 7 7 2 13 -11 13 -16 0 -19
19 -11 55 8 30 6 48 -2 40 -9 -8 -31 -3 -48 10 -28 22 -29 21 -5 -9z"/>
<path d="M5633 4611 c-7 -19 -4 -28 7 -21 27 16 47 -79 31 -145 -9 -36 -7 -48
6 -35 22 23 41 191 20 178 -8 -5 -23 6 -33 24 -17 30 -19 30 -31 -1z"/>
<path d="M5846 4618 c-11 -11 -17 -51 -12 -88 5 -38 -1 -72 -15 -80 -16 -10
-20 -3 -11 22 6 21 3 65 -8 98 -18 55 -19 53 -9 -20 8 -58 5 -72 -10 -50 -11
17 -21 21 -21 10 0 -11 -8 -8 -17 6 -10 16 -17 -2 -19 -50 -2 -42 -12 -79 -22
-82 -11 -4 -15 -19 -9 -34 6 -15 1 -44 -11 -64 -18 -31 -21 -27 -21 27 -1 34
-16 74 -34 90 -30 24 -31 23 -10 -17 28 -53 30 -126 3 -126 -11 0 -19 -7 -18
-15 7 -40 -5 -52 -23 -25 -17 25 -20 23 -15 -10 4 -25 -5 -40 -24 -40 -16 0
-37 -11 -46 -25 -18 -29 -2 -65 30 -65 13 0 12 11 -4 30 -30 36 2 40 37 5 20
-20 23 -18 11 12 -12 33 -9 35 29 15 28 -15 43 -16 43 -3 0 12 -10 21 -21 21
-12 0 -15 10 -8 21 7 12 26 17 41 11 15 -6 28 -2 28 9 0 10 -9 19 -20 19 -11
0 -20 8 -20 18 0 10 16 16 35 15 25 -2 38 17 47 67 7 39 14 54 15 35 3 -36 43
-51 43 -16 0 10 -9 24 -20 31 -11 7 -20 34 -20 61 0 27 9 49 20 49 11 0 20
-26 20 -59 0 -65 21 -87 67 -69 23 8 28 28 20 70 -12 57 -10 58 41 39 43 -16
56 -14 65 10 16 42 -11 65 -33 29 -10 -16 -24 -23 -32 -15 -7 8 7 31 32 51 26
21 40 48 32 61 -20 33 -53 29 -40 -5 6 -15 1 -34 -11 -41 -12 -8 -22 3 -23 23
-1 26 -7 22 -20 -14 -15 -46 -16 -44 -11 15 3 36 5 65 4 65 -2 0 -13 -10 -25
-22z"/>
<path d="M2580 4570 c-13 -16 -32 -25 -40 -20 -9 5 -21 -4 -28 -21 -7 -19 -22
-25 -37 -16 -20 12 -20 9 0 -16 13 -17 18 -38 10 -47 -8 -9 -4 -10 10 -2 19
11 22 -9 16 -82 -6 -58 -3 -85 8 -68 13 22 19 20 28 -10 5 -21 6 10 2 69 -5
59 -14 115 -20 125 -6 10 14 40 45 67 31 28 50 50 43 50 -6 1 -23 -12 -37 -29z"/>
<path d="M4078 4575 c-2 -14 -1 -37 1 -51 2 -15 -8 -42 -23 -59 -21 -26 -21
-30 0 -17 14 8 38 5 53 -7 20 -17 29 -15 38 7 8 21 2 26 -21 18 -25 -10 -30
-3 -21 31 6 23 3 43 -6 43 -10 0 -13 14 -6 30 6 17 6 30 -1 30 -7 0 -13 -11
-14 -25z"/>
<path d="M5365 4423 c-14 -80 -19 -156 -12 -168 7 -11 -4 -34 -25 -49 -36 -27
-36 -29 -3 -48 52 -30 43 -64 -9 -36 -33 18 -46 18 -52 1 -12 -38 -44 -26 -32
12 10 33 10 33 -12 0 -17 -28 -16 -42 7 -65 25 -25 30 -23 40 14 9 35 16 38
41 18 17 -14 40 -20 51 -13 12 8 21 4 21 -8 0 -12 -13 -27 -28 -33 -45 -17
-55 -66 -14 -63 20 2 35 17 34 34 -1 18 14 31 38 31 27 0 41 14 42 45 2 25 -6
45 -16 45 -10 0 -13 -20 -6 -45 10 -39 6 -38 -38 14 -36 43 -44 64 -26 75 13
8 27 6 31 -5 3 -10 21 -19 40 -19 26 1 24 8 -13 36 -71 55 -71 156 1 148 33
-4 55 3 55 17 0 13 -13 18 -29 12 -15 -6 -39 3 -52 19 -37 43 -8 57 44 20 63
-44 77 -40 77 18 0 31 -11 50 -30 50 -18 0 -30 18 -30 44 0 35 -5 39 -25 19
-20 -21 -16 -34 23 -65 56 -46 45 -72 -15 -35 -23 14 -44 48 -47 76 -3 28 -17
-15 -31 -96z"/>
<path d="M2985 4421 c-26 -135 -20 -167 21 -120 16 19 21 66 14 139 l-10 110
-25 -129z"/>
<path d="M5310 4399 c-8 -56 -25 -106 -38 -111 -13 -5 -23 -31 -23 -57 1 -66
26 -85 26 -20 0 30 9 59 20 66 21 13 57 223 39 223 -6 0 -17 -46 -24 -101z"/>
<path d="M5547 4385 c-1 -19 -6 -48 -11 -65 -5 -16 -6 -23 -1 -14 5 9 22 5 37
-8 22 -18 28 -17 28 5 -1 84 -50 160 -53 82z"/>
<path d="M1907 4370 c-6 -16 -19 -25 -29 -19 -10 6 -18 3 -18 -7 0 -27 59 -72
74 -57 7 7 2 13 -11 13 -12 0 -23 10 -23 21 0 12 8 16 19 10 10 -7 17 6 16 29
-4 48 -12 51 -28 10z"/>
<path d="M2301 4341 c-14 -24 -19 -50 -13 -56 7 -6 12 -1 12 12 0 33 54 29 66
-5 14 -35 -2 -52 -49 -52 -20 0 -37 -8 -37 -17 0 -10 23 -13 50 -8 42 8 61 29
47 50 -2 3 7 25 20 50 21 38 19 42 -9 32 -17 -7 -39 -1 -48 13 -12 19 -22 14
-39 -19z"/>
<path d="M2734 4314 c-20 -25 -29 -58 -22 -81 9 -27 5 -34 -13 -23 -18 12 -22
2 -15 -36 6 -29 3 -48 -7 -42 -16 10 -26 -20 -19 -58 2 -10 -6 -11 -18 -4 -11
7 -20 -2 -20 -19 0 -18 -13 -37 -30 -44 -16 -6 -25 -19 -19 -29 6 -10 3 -18
-8 -18 -11 0 -25 11 -31 25 -7 17 -10 15 -9 -5 4 -61 -3 -82 -23 -70 -11 7
-20 -1 -20 -18 0 -19 -11 -26 -30 -19 -23 8 -27 2 -19 -26 12 -35 10 -35 -19
2 -19 22 -32 28 -32 13 0 -13 14 -38 30 -55 34 -34 21 -76 -16 -53 -13 7 -11
-2 5 -22 23 -28 24 -43 5 -74 -27 -42 -6 -52 32 -14 13 13 24 15 24 4 0 -11
-10 -30 -22 -42 -14 -14 -16 -47 -8 -88 14 -63 16 -64 44 -27 20 27 28 30 25
9 -7 -58 1 -100 21 -100 11 0 20 34 20 76 0 177 128 467 301 681 54 68 90 124
79 126 -11 1 -31 4 -45 5 -14 2 -23 15 -20 28 3 13 -2 25 -10 26 -8 0 -29 4
-46 7 -17 4 -47 -12 -65 -35z"/>
<path d="M1832 4282 c8 -32 5 -43 -10 -33 -12 7 -22 3 -22 -10 0 -13 14 -18
31 -12 20 8 37 -5 50 -40 11 -29 26 -47 33 -40 15 15 66 -80 66 -123 0 -25 5
-27 24 -8 19 19 19 29 0 48 -13 13 -24 40 -24 60 0 20 -7 36 -16 36 -8 0 -17
17 -18 39 -3 36 -1 36 32 5 19 -19 31 -47 25 -62 -6 -19 -1 -23 15 -13 14 8
20 28 14 43 -6 15 -4 28 5 28 33 0 41 -26 20 -65 -13 -24 -14 -45 -3 -53 11
-6 25 -28 32 -47 10 -27 26 -33 64 -23 31 8 50 4 50 -10 0 -12 -9 -22 -20 -22
-11 0 -20 -9 -20 -20 0 -11 37 4 82 33 67 45 84 50 99 26 10 -16 19 -20 19 -9
0 11 9 7 20 -10 11 -16 20 -20 20 -7 0 34 -56 73 -89 60 -35 -13 -61 18 -31
37 11 7 20 26 20 43 0 27 -3 27 -30 0 -17 -17 -48 -36 -70 -43 -23 -7 -35 -21
-29 -32 6 -10 -10 -9 -36 3 -25 12 -48 39 -50 60 -3 48 13 50 47 4 25 -33 27
-33 27 0 1 19 -7 35 -18 35 -10 0 -15 20 -11 45 8 42 7 43 -19 9 -26 -35 -66
-15 -43 22 5 9 -8 27 -29 40 -22 13 -39 16 -39 6 0 -10 11 -22 24 -27 12 -4
17 -18 8 -31 -18 -30 -74 16 -56 46 6 11 -4 7 -23 -8 -19 -16 -30 -40 -25 -55
6 -14 2 -31 -9 -38 -10 -6 -19 7 -19 30 0 22 -8 41 -17 41 -9 0 -27 20 -40 45
l-23 45 12 -48z"/>
<path d="M5900 4306 c0 -44 114 -91 128 -54 18 47 15 68 -10 68 -12 0 -17 -14
-10 -31 14 -37 -67 -20 -93 19 -10 15 -14 15 -15 -2z"/>
<path d="M3100 4239 c0 -12 -7 -17 -15 -12 -8 5 -16 -12 -18 -37 -2 -34 6 -44
26 -36 16 6 25 24 19 39 -6 15 -2 27 9 27 10 0 20 -25 20 -55 2 -46 4 -49 17
-16 13 34 16 35 28 5 7 -19 29 -33 48 -32 34 2 34 3 0 12 -23 6 -33 21 -26 39
6 16 3 24 -8 17 -10 -6 -30 7 -44 29 -28 44 -56 54 -56 20z"/>
<path d="M4540 4242 c0 -10 -25 -45 -56 -77 -30 -33 -57 -81 -59 -107 -2 -32
2 -39 13 -21 9 15 22 26 29 25 34 -5 41 0 20 13 -18 11 -16 28 6 65 21 37 26
40 18 10 -14 -54 18 -107 36 -61 8 21 5 28 -9 20 -26 -16 -5 69 24 100 24 25
23 51 -2 51 -11 0 -20 -8 -20 -18z"/>
<path d="M4439 4228 c-2 -53 -58 -94 -92 -66 -31 26 -31 24 -5 -17 15 -25 37
-42 48 -39 26 9 77 114 62 129 -7 6 -12 3 -13 -7z"/>
<path d="M2548 4181 c18 -28 32 -64 31 -80 0 -19 -11 -12 -29 19 -17 29 -29
38 -29 20 0 -16 18 -52 40 -80 23 -30 35 -36 27 -15 -8 22 0 39 20 47 33 13
46 52 15 43 -10 -3 -38 18 -62 45 l-44 50 31 -49z"/>
<path d="M1797 4166 c-19 -23 -19 -29 -2 -19 14 9 39 2 57 -16 28 -28 23 -40
-17 -33 -8 1 -15 -8 -15 -20 0 -12 14 -17 32 -10 17 7 41 12 53 12 12 0 2 21
-22 46 -24 26 -37 53 -30 60 8 8 4 14 -7 14 -12 0 -33 -15 -49 -34z"/>
<path d="M3078 4125 c-20 -4 -33 -29 -34 -65 -1 -31 -11 -75 -23 -97 -11 -22
-21 -59 -21 -82 0 -23 -15 -76 -33 -117 -18 -41 -35 -78 -37 -84 -2 -5 -19
-45 -38 -88 -29 -63 -30 -81 -8 -95 40 -25 56 -20 43 13 -14 36 25 41 40 5 5
-14 7 12 4 57 -4 46 1 95 11 110 19 30 27 4 20 -62 -3 -25 -1 -26 15 -2 12 17
12 47 2 75 -11 29 -11 47 1 47 10 0 14 14 7 30 -6 17 -1 30 12 30 16 0 20 -19
13 -55 -7 -30 -2 -68 10 -85 18 -25 20 -24 10 8 -7 20 -3 49 9 64 13 14 15 38
7 52 -29 46 -22 95 15 107 49 15 47 43 -3 59 -22 7 -40 22 -40 33 0 10 9 14
20 7 11 -7 21 8 22 34 2 39 5 36 18 -14 l15 -60 3 62 c2 65 109 93 146 40 18
-27 44 -1 27 27 -7 11 -53 21 -101 21 -47 0 -90 7 -93 16 -4 8 -21 12 -39 9z"/>
<path d="M2040 4013 c0 -16 -13 -34 -30 -40 -16 -7 -30 -22 -30 -35 0 -15 16
-10 40 12 35 32 40 32 40 4 0 -17 9 -37 20 -44 12 -7 14 2 6 22 -9 25 -5 30
12 19 16 -10 20 -35 12 -68 -7 -29 -10 -48 -6 -43 4 6 19 25 33 43 21 29 16
43 -36 96 -37 38 -61 51 -61 34z"/>
<path d="M2908 4005 c-12 -8 -38 -64 -59 -125 -20 -60 -49 -124 -63 -142 -14
-17 -26 -43 -26 -57 0 -15 -27 -70 -60 -124 -33 -54 -60 -106 -60 -117 0 -57
85 22 111 103 8 26 43 101 79 167 58 111 85 183 103 275 8 39 6 40 -25 20z"/>
<path d="M3380 4002 c0 -10 11 -24 25 -29 14 -6 -20 -6 -76 0 -94 10 -188 -61
-142 -107 5 -5 15 10 23 32 7 23 21 42 31 42 28 0 23 -75 -6 -86 -14 -5 -18
-16 -9 -26 21 -22 53 30 54 87 0 51 1 51 64 27 69 -26 130 19 75 54 -22 14
-39 16 -39 6z"/>
<path d="M2192 3911 c-29 -32 -47 -63 -41 -69 7 -6 21 4 31 23 11 19 29 35 39
35 28 0 23 -75 -6 -88 -20 -10 -20 -14 0 -24 14 -6 25 -33 25 -60 0 -26 9 -48
20 -48 11 0 20 17 20 39 0 21 -9 44 -20 51 -11 7 -20 21 -20 32 0 11 8 15 19
9 10 -6 24 7 31 30 9 26 25 38 43 31 16 -7 24 -3 17 8 -7 11 -22 20 -34 20
-12 0 -33 15 -46 34 -23 31 -30 29 -78 -23z"/>
<path d="M1960 3872 c0 -16 -11 -33 -25 -39 -15 -6 -11 -10 10 -11 21 -1 35
-18 35 -42 0 -22 9 -40 20 -40 12 0 12 19 -1 53 -11 30 -16 66 -10 80 5 15 1
27 -10 27 -10 0 -19 -13 -19 -28z"/>
<path d="M3840 3694 c0 -59 17 -75 60 -56 25 10 22 20 -15 60 l-45 48 0 -52z"/>
<path d="M5240 3591 c0 -33 98 -126 107 -102 7 19 1 31 -18 31 -16 0 -29 17
-29 37 0 20 -13 36 -30 36 -16 0 -30 -1 -30 -2z"/>
<path d="M1994 3347 c9 -23 5 -29 -11 -19 -28 17 -30 -7 -3 -48 14 -22 19 -23
20 -4 0 15 9 21 19 15 25 -16 4 -71 -24 -65 -28 6 -35 -152 -7 -172 14 -10 11
-14 -9 -10 -16 3 -31 -2 -33 -12 -1 -10 -10 -23 -19 -30 -9 -6 -30 -30 -47
-52 -28 -39 -28 -39 12 -5 56 48 83 44 38 -5 -20 -22 -47 -40 -61 -40 -14 0
-30 -14 -37 -32 -19 -49 -15 -55 18 -28 23 19 37 19 58 2 21 -18 30 -16 39 6
8 21 2 26 -21 18 -22 -9 -28 -5 -18 11 8 12 27 23 43 23 16 0 28 7 27 15 -9
52 5 83 32 72 22 -8 27 -2 18 21 -8 22 -1 32 21 32 22 0 31 13 27 35 -5 22
-22 32 -46 28 -33 -6 -34 -2 -11 26 22 26 31 28 44 7 14 -21 21 -20 37 4 25
38 25 60 1 60 -10 0 -24 20 -31 45 -19 69 -55 135 -73 135 -9 0 -10 -15 -3
-33z"/>
<path d="M5212 3345 c-5 -4 -82 -11 -172 -15 -89 -3 -167 -11 -173 -16 -16
-17 167 -40 192 -25 11 7 21 3 21 -10 0 -18 8 -18 30 1 22 18 30 19 30 2 0
-25 36 -10 108 43 32 24 32 28 5 28 -18 0 -37 -3 -41 -8z"/>
<path d="M1587 2509 c-7 -18 -26 -26 -48 -19 -19 6 -42 1 -51 -13 -10 -16 -4
-20 19 -11 21 8 42 -1 58 -27 14 -21 33 -39 44 -39 10 0 8 11 -5 24 -29 29
-32 63 -4 46 11 -7 20 6 20 29 0 48 -16 54 -33 10z"/>
<path d="M1455 2408 c-8 -8 -7 -24 3 -36 10 -12 21 -37 25 -56 6 -29 13 -27
50 15 l44 49 -47 0 c-26 0 -50 10 -54 21 -4 12 -13 15 -21 7z"/>
<path d="M1391 2361 c-7 -11 -4 -21 8 -21 11 0 19 -7 17 -15 -7 -26 26 -105
43 -105 16 0 -21 128 -43 151 -7 6 -18 2 -25 -10z"/>
<path d="M3340 5093 c0 -34 -11 -53 -30 -53 -16 0 -30 -13 -30 -30 0 -16 9
-30 20 -30 11 0 20 9 20 20 0 11 9 20 20 20 11 0 20 -14 20 -31 0 -17 9 -26
20 -19 12 7 14 23 6 36 -8 13 -18 46 -22 74 -9 69 -24 77 -24 13z"/>
<path d="M3304 4864 c-33 -69 -35 -83 -10 -93 48 -18 66 -13 66 20 0 17 8 26
18 20 10 -6 22 1 28 16 6 14 -2 26 -18 26 -15 0 -33 -16 -39 -36 -11 -36 -50
-53 -48 -22 2 44 56 95 103 99 42 3 51 -3 42 -28 -9 -22 -5 -28 11 -18 31 19
29 65 -4 78 -15 6 -39 3 -54 -7 -17 -10 -33 -8 -42 5 -7 13 -30 -13 -53 -60z"/>
<path d="M7545 6981 c-91 -98 -165 -184 -165 -191 0 -15 234 232 300 316 79
100 31 55 -135 -125z"/>
</g>
</svg>
